<svg width="252" height="303" viewBox="0 0 252 303" fill="none" xmlns="http://www.w3.org/2000/svg">
<g clip-path="url(#clip0_10_2)">
<g opacity="0.5">
<path d="M128.789 303C191.931 303 243.118 298.945 243.118 293.943C243.118 288.94 191.931 284.885 128.789 284.885C65.6469 284.885 14.46 288.94 14.46 293.943C14.46 298.945 65.6469 303 128.789 303Z" fill="#DEDFD9"/>
<path d="M127.378 127.713C154.236 100.785 154.236 57.1257 127.378 30.1975C100.52 3.26927 56.9744 3.26927 30.1165 30.1975C3.25856 57.1257 3.25856 100.785 30.1165 127.713C56.9744 154.641 100.52 154.641 127.378 127.713Z" fill="#F7EFDF"/>
<path d="M188.091 146.227C218.785 146.227 243.668 121.279 243.668 90.5043C243.668 59.7296 218.785 34.7818 188.091 34.7818C157.396 34.7818 132.514 59.7296 132.514 90.5043C132.514 121.279 157.396 146.227 188.091 146.227Z" fill="#F7EFDF"/>
<path d="M131.584 43.8803L133.964 35.1219H138.53L137.139 40.0698H145.062L137.127 52.8792L138.712 43.8803H131.584Z" fill="#BB8A5C"/>
<path d="M150.207 47.4037L153.704 34.5415H160.41L158.358 41.805H170.006L158.346 60.6176L160.679 47.4037H150.207Z" fill="#BB8A5C"/>
<path d="M117.036 37.3848H181.524C181.883 36.4066 182.065 35.3725 182.062 34.3304C182.061 31.9681 181.124 29.7031 179.457 28.0333C177.791 26.3634 175.531 25.4254 173.175 25.4254C172.041 25.4219 170.917 25.6389 169.865 26.0644C169.646 22.5591 168.169 19.2518 165.707 16.7538C163.244 14.2557 159.963 12.7358 156.47 12.4749C152.977 12.214 149.507 13.2298 146.703 15.3345C143.898 17.4392 141.949 20.4905 141.214 23.9246C139.851 23.4111 138.389 23.2154 136.939 23.3524C135.489 23.4893 134.09 23.9554 132.846 24.7152C131.603 25.4751 130.548 26.5087 129.762 27.7379C128.976 28.967 128.479 30.3594 128.31 31.8096C127.271 31.008 126.029 30.5141 124.725 30.3838C123.421 30.2535 122.107 30.492 120.931 31.0724C119.755 31.6527 118.765 32.5516 118.072 33.6673C117.38 34.7829 117.013 36.0707 117.013 37.3848H117.036Z" fill="#3A749A"/>
<path d="M87.8006 287.371L89.9582 268.154L101.992 269.162L98.3489 287.066L87.8006 287.371Z" fill="#EDA38F"/>
<path d="M162.55 120.326C162.515 120.326 155.084 121.716 149.839 121.757L150.195 126.529L107.745 121.352L104.822 121.001L86.6955 118.791C86.6955 118.791 95.6066 100.418 122.638 98.0551C122.802 98.0551 131.742 99.0693 136.326 98.3599C148.359 96.484 156.961 103.402 159.03 99.2979C161.685 94.0217 150.652 88.8159 150.652 88.8159L154.628 81.054C154.628 81.054 169.421 84.1787 175.122 93.0134C179.057 99.04 183.015 114.476 162.55 120.326Z" fill="#1C272D"/>
<path d="M126.684 68.0043C126.684 68.0043 119.229 66.8318 120.597 79.4243C121.568 88.2883 124.895 90.2815 124.895 90.2815L125.801 82.7835L127.041 77.7418L129.538 70.7655L126.684 68.0043Z" fill="#302824"/>
<path d="M136.238 99.6614L135.297 90.8678L125.83 82.5666L122.691 98.36C122.691 98.36 133.122 107.74 136.238 99.6614Z" fill="#EDA38F"/>
<path d="M135.969 97.0292C129.923 96.8885 128.111 91.1667 128.111 91.1667L135.478 92.5268L135.969 97.0292Z" fill="#302824"/>
<path d="M145.073 79.1429C143.319 86.4709 141.612 96.9178 134.186 95.0946C126.07 93.0955 125.053 84.9291 125.415 78.9612C125.608 75.9655 128.181 71.1641 135.215 71.7621C144.015 72.5242 145.793 76.2117 145.073 79.1429Z" fill="#EDA38F"/>
<path d="M127.076 81.9393C127.147 81.5802 127.123 81.2085 127.006 80.8616C126.889 80.5148 126.683 80.2049 126.409 79.9631C126.135 79.7213 125.802 79.5562 125.444 79.4842C125.085 79.4123 124.715 79.4361 124.369 79.5533C123.859 79.7636 123.443 80.1534 123.199 80.6495C121.942 82.9945 123.532 85.3395 126.468 85.3395L127.076 81.9393Z" fill="#EDA38F"/>
<path d="M126.684 68.0043C134.689 59.0347 147.459 67.248 147.266 74.1188C147.143 78.4628 144.804 80.415 144.804 80.415C145.6 77.8883 143.822 76.8976 143.822 76.8976C141.167 83.3463 130.204 80.0164 130.204 80.0164C129.312 81.0124 128.795 82.2898 128.742 83.6277C126.228 82.7835 126.941 80.8137 125.491 80.0164C125.092 79.8021 124.626 79.7508 124.19 79.8732C123.754 79.9956 123.382 80.2821 123.152 80.673C122.568 81.8748 126.684 68.0043 126.684 68.0043Z" fill="#302824"/>
<path d="M135.788 82.0038C137.238 82.1877 138.71 81.9855 140.057 81.4175C140.992 80.9855 141.83 80.3665 142.519 79.5983C143.208 78.8302 143.733 77.9291 144.062 76.9503L143.577 76.8096C143.262 77.716 142.77 78.5501 142.13 79.2629C141.489 79.9757 140.713 80.5529 139.846 80.9603C137.361 82.0565 134.157 81.6579 130.309 79.7878L130.093 80.2392C131.873 81.1599 133.801 81.7574 135.788 82.0038V82.0038Z" fill="#302824"/>
<path d="M133.262 288.039L134.087 268.687H146.149L143.781 287.687L133.262 288.039Z" fill="#EDA38F"/>
<path d="M152.903 278.366C152.903 278.366 161.317 233.77 160.557 217.584C159.82 201.926 149.102 152.752 149.102 152.752L113.136 151.714L130.093 224.18L127.076 277.528L152.903 278.366Z" fill="#0655C6"/>
<path d="M130.935 273.395L131.42 277.674L127.082 277.539L130.099 224.174L125.953 206.469L130.637 200.642L134.817 221.301L130.935 273.395Z" fill="#0655C6"/>
<path d="M142.202 158.081L140.238 165.25L139.793 166.863L109.593 277.012L82.7078 276.15L104.073 170.949L105.266 165.098L107.014 156.48L142.202 158.081Z" fill="#0655C6"/>
<path d="M154.99 273.858C154.99 273.858 135.028 277.493 125.17 272.902L124.994 278.612C134.291 281.385 143.617 281.315 154.815 279.568L154.99 273.858Z" fill="#0655C6"/>
<path d="M109.008 142.586C109.008 142.451 110.283 129.478 117.563 120.121L117.03 119.664C109.616 129.191 108.336 142.381 108.324 142.528L109.008 142.586Z" fill="white"/>
<path d="M149.102 152.752L147.149 162.53L146.921 162.688C144.666 164.284 142.277 165.68 139.782 166.863C121.925 175.357 104.553 170.11 104.553 170.11L104.079 170.949L105.248 165.086C103.911 164.695 102.578 164.279 101.249 163.838L101.506 160.76L102.471 149.176L149.102 152.752Z" fill="#0655C6"/>
<path d="M152.686 159.599C150.829 160.739 148.908 161.771 146.933 162.688C144.759 163.688 142.523 164.544 140.238 165.25C128.795 168.768 116.75 168.322 105.266 165.098C103.929 164.707 102.596 164.291 101.267 163.849L101.524 160.771L102.489 149.187L103.927 131.969L104.839 121.007L106.301 104.656C106.301 104.656 122.55 98.0668 122.673 98.0668C131.853 105.067 136.367 98.3717 136.367 98.3717L149.546 117.946L152.686 159.599Z" fill="#1C272D"/>
<path d="M107.546 130.035L102.372 160.93L101.524 160.777L103.927 131.975L107.546 130.035Z" fill="#32617C"/>
<path d="M101.46 163.48C101.927 164.066 103.36 165.901 104.038 166.171C104.716 166.44 108.242 167.343 107.985 168.064C107.728 168.785 105.383 167.707 105.272 168.357C105.202 168.756 109.739 171.054 109.084 171.799C108.652 172.285 106.09 170.521 105.962 170.855C105.833 171.189 109.47 172.684 108.844 173.44C108.219 174.196 105.061 171.253 104.787 171.635C104.652 171.822 108.716 174.314 108.207 174.918C107.529 175.727 104.617 172.789 104.278 173.129C104.108 173.294 105.325 174.15 105.979 174.748C106.342 175.082 106.137 175.428 105.81 175.334C102.448 174.478 99.0505 169.471 98.5477 169.155C97.7992 168.697 96.7175 168.258 96.0159 167.789L101.46 163.48Z" fill="#EDA38F"/>
<path d="M154.253 81.8924L151.47 87.3503C150.81 86.8199 150.062 86.411 149.26 86.1426C148.587 86.0723 144.898 86.1426 144.956 85.3747C145.015 84.6067 147.553 85.017 147.494 84.3663C147.447 83.9618 142.466 82.9652 142.904 82.0682C143.185 81.482 146.12 82.5021 146.161 82.1444C146.202 81.7868 142.314 81.312 142.694 80.4268C143.074 79.5415 146.927 81.523 147.079 81.0775C147.161 80.8606 142.582 79.5415 142.916 78.8263C143.36 77.8707 146.939 79.9226 147.178 79.5005C147.295 79.2953 145.904 78.797 145.108 78.3983C144.664 78.1697 144.775 77.7828 145.108 77.7769C148.582 77.7007 153.189 81.6227 153.756 81.7927C153.914 81.8103 154.078 81.8572 154.253 81.8924Z" fill="#EDA38F"/>
<path d="M104.699 164.734C104.699 164.734 89.6366 142.088 107.359 129.783L118.428 101.76V101.567C106.652 101.109 93.7238 107.869 86.5377 117.776C74.4633 134.314 76.9074 159.716 97.197 172.297L104.699 164.734Z" fill="#1C272D"/>
<path d="M149.95 116.727C149.95 116.727 164.673 120.186 175.823 111.773L175.73 112.055C173.426 115.402 169.298 118.392 162.556 120.327C162.521 120.327 155.09 121.716 149.85 121.757L149.95 116.727Z" fill="#32617C"/>
<path d="M149.86 113.839L149.265 113.88L152.399 159.617L152.994 159.576L149.86 113.839Z" fill="#302824"/>
<path d="M109.885 277.094L109.306 276.93L134.391 184.977L134.964 185.142L109.885 277.094Z" fill="#302824"/>
<path d="M111.534 273.43C111.534 273.43 91.572 277.065 81.7138 272.468L81.5325 278.184C90.8353 280.951 100.161 280.881 111.353 279.14L111.534 273.43Z" fill="#0655C6"/>
<path d="M94.6242 275.107C89.2741 275.107 85.4735 274.555 81.5793 272.762L81.8307 272.216C91.5019 276.719 111.271 273.184 111.482 273.148L111.587 273.735C105.972 274.589 100.303 275.048 94.6242 275.107V275.107Z" fill="#302824"/>
<path d="M138.659 275.534C133.315 275.534 128.929 274.978 125.035 273.189L125.287 272.65C134.958 277.147 154.727 273.617 154.937 273.582L155.043 274.169C149.624 275.037 144.147 275.494 138.659 275.534V275.534Z" fill="#0655C6"/>
<path d="M86.4207 295.232H114.019C114.245 295.233 114.469 295.187 114.676 295.097C114.884 295.008 115.071 294.876 115.226 294.712C115.381 294.547 115.501 294.352 115.578 294.139C115.655 293.926 115.688 293.7 115.674 293.474V293.438C115.674 293.227 115.627 293.01 115.598 292.794C115.54 292.107 115.319 291.443 114.955 290.859C113.645 289.1 111.101 288.32 106.576 286.521C104.371 285.611 102.261 284.483 100.278 283.156C100.111 283.045 99.9111 282.996 99.712 283.017C99.5129 283.037 99.3268 283.125 99.185 283.267C93.7238 288.625 90.3675 287.482 89.3677 285.272C88.6017 283.589 87.5141 283.941 87.2159 284.434C86.2921 285.975 85.7892 290.501 85.5846 292.77C85.5846 293.01 85.5378 293.239 85.5261 293.415C85.4969 293.837 85.4735 294.095 85.4735 294.095C85.4487 294.234 85.4546 294.377 85.4908 294.513C85.5269 294.65 85.5924 294.777 85.6827 294.885C85.773 294.993 85.8858 295.081 86.0133 295.141C86.1408 295.201 86.2799 295.232 86.4207 295.232V295.232Z" fill="#13426E"/>
<path d="M105.032 289.411C105.591 289.15 106.052 288.718 106.352 288.178C106.651 287.638 106.772 287.017 106.699 286.403L106.225 286.474C106.288 286.986 106.186 287.505 105.935 287.955C105.683 288.405 105.296 288.763 104.827 288.977L105.032 289.411Z" fill="#302824"/>
<path d="M107.459 290.226C107.976 289.959 108.404 289.546 108.689 289.037C108.974 288.528 109.103 287.947 109.061 287.365L108.587 287.423C108.614 287.91 108.499 288.393 108.257 288.816C108.016 289.238 107.657 289.581 107.225 289.804L107.459 290.226Z" fill="#302824"/>
<path d="M91.8702 289.018C93.1005 288.984 94.3098 288.69 95.4194 288.156L95.1972 287.728C95.1563 287.728 90.9639 289.862 88.8122 287.177L88.438 287.476C88.8511 287.983 89.3764 288.386 89.9723 288.654C90.5681 288.922 91.2179 289.046 91.8702 289.018V289.018Z" fill="#302824"/>
<path d="M131.391 295.232H159.007C159.234 295.233 159.458 295.188 159.666 295.099C159.874 295.01 160.062 294.879 160.218 294.714C160.373 294.549 160.494 294.354 160.571 294.14C160.648 293.927 160.681 293.7 160.668 293.474V293.438C160.668 293.227 160.627 293.01 160.592 292.794C160.538 292.107 160.319 291.443 159.954 290.859C158.645 289.1 156.101 288.32 151.57 286.521C149.36 285.618 147.244 284.499 145.255 283.179C145.087 283.069 144.887 283.02 144.688 283.04C144.489 283.06 144.303 283.149 144.161 283.291C138.7 288.649 135.344 287.506 134.338 285.295C133.572 283.613 132.49 283.965 132.186 284.457C131.268 285.999 130.765 290.525 130.561 292.794C130.532 293.034 130.514 293.263 130.502 293.438C130.467 293.86 130.45 294.118 130.45 294.118C130.429 294.255 130.437 294.395 130.475 294.528C130.512 294.661 130.578 294.785 130.667 294.89C130.756 294.996 130.867 295.081 130.992 295.14C131.117 295.199 131.253 295.231 131.391 295.232V295.232Z" fill="#13426E"/>
<path d="M150.002 289.411C150.561 289.15 151.023 288.718 151.322 288.178C151.621 287.638 151.743 287.017 151.669 286.403L151.195 286.474C151.256 286.986 151.152 287.505 150.9 287.954C150.648 288.404 150.26 288.762 149.792 288.977L150.002 289.411Z" fill="#302824"/>
<path d="M152.429 290.226C152.944 289.956 153.37 289.542 153.654 289.034C153.939 288.526 154.07 287.946 154.031 287.365L153.552 287.423C153.581 287.91 153.468 288.395 153.226 288.818C152.984 289.241 152.623 289.584 152.189 289.804L152.429 290.226Z" fill="#302824"/>
<path d="M136.823 289.018C138.052 288.985 139.259 288.691 140.366 288.156L140.15 287.728C140.109 287.728 135.917 289.862 133.765 287.177L133.391 287.476C133.804 287.983 134.329 288.387 134.925 288.655C135.521 288.922 136.171 289.047 136.823 289.018V289.018Z" fill="#302824"/>
<path d="M185.132 92.5444L195.932 94.3852C199.608 98.2797 204.564 100.711 209.887 101.23C215.21 101.75 220.541 100.323 224.897 97.2129C229.254 94.1026 232.342 89.5183 233.593 84.305C234.844 79.0917 234.173 73.6007 231.705 68.844C229.236 64.0873 225.136 60.3854 220.16 58.4206C215.184 56.4558 209.667 56.3605 204.627 58.1522C199.586 59.944 195.361 63.502 192.731 68.1707C190.1 72.8393 189.241 78.3039 190.313 83.5573L185.132 92.5444Z" fill="#F6CD93"/>
<path d="M213.555 99.9311C210.478 99.9264 207.432 99.3012 204.601 98.0927C201.769 96.8841 199.209 95.1169 197.072 92.8962L185.641 90.9322L191.125 81.4234C190.231 76.8027 190.781 72.0178 192.7 67.7221C194.619 63.4263 197.813 59.8291 201.847 57.4215C205.881 55.0139 210.558 53.9132 215.239 54.2698C219.92 54.6264 224.378 56.4229 228.003 59.4139C231.627 62.405 234.243 66.4449 235.493 70.982C236.742 75.5191 236.565 80.3323 234.984 84.7645C233.404 89.1966 230.498 93.0318 226.662 95.7462C222.827 98.4606 218.25 99.9221 213.555 99.9311V99.9311ZM187.494 90.0646L197.657 91.8233L197.785 91.964C201.364 95.7602 206.19 98.1317 211.375 98.6414C216.56 99.151 221.754 97.7645 226 94.7374C230.246 91.7103 233.257 87.2466 234.48 82.1689C235.702 77.0912 235.052 71.7417 232.651 67.1063C230.249 62.4709 226.257 58.862 221.411 56.9446C216.565 55.0273 211.191 54.9308 206.279 56.6729C201.368 58.4149 197.25 61.8782 194.684 66.4244C192.119 70.9706 191.278 76.2933 192.318 81.4116L192.365 81.6286L187.494 90.0646Z" fill="white"/>
<path d="M206.843 84.0263C206.601 83.1132 206.506 82.1672 206.562 81.224C206.701 80.3171 207.013 79.4454 207.48 78.6563L208.883 76.2468C209.445 75.2677 209.617 74.1114 209.363 73.0108C209.2 72.1389 208.708 71.3637 207.989 70.8475C207.613 70.6246 207.195 70.4838 206.762 70.4343C206.329 70.3848 205.89 70.4277 205.474 70.5603C204.61 70.733 203.84 71.2193 203.311 71.9262C203.081 72.259 202.928 72.6391 202.863 73.0387C202.799 73.4383 202.824 73.8474 202.937 74.236L200.282 74.8985C200.09 74.1911 200.055 73.4499 200.181 72.7276C200.306 72.0053 200.588 71.3194 201.007 70.7186C201.949 69.4299 203.339 68.5411 204.901 68.227C206.706 67.7737 208.236 67.9085 209.491 68.6315C210.138 69.0287 210.695 69.5565 211.126 70.1812C211.558 70.806 211.856 71.5141 212 72.2604C212.413 73.9409 212.046 75.7896 210.9 77.8062L209.731 79.7526C209.211 80.8869 209.134 82.1753 209.515 83.3638L206.843 84.0263ZM207.866 88.6342C207.751 88.2326 207.795 87.8022 207.989 87.4324C208.241 87.0662 208.617 86.8046 209.048 86.6967C209.478 86.5888 209.933 86.6419 210.327 86.8461C210.674 87.0778 210.917 87.435 211.006 87.8427C211.114 88.2363 211.066 88.6566 210.871 89.0152C210.719 89.3113 210.479 89.553 210.185 89.7074C209.89 89.8617 209.555 89.9211 209.226 89.8775C208.896 89.8339 208.588 89.6893 208.344 89.4637C208.099 89.238 207.93 88.9422 207.86 88.6166L207.866 88.6342Z" fill="#13426E"/>
<path d="M216.239 83.4107C216.503 82.5039 216.91 81.645 217.443 80.8664C218.031 80.1634 218.747 79.5802 219.554 79.1488L221.998 77.8121C222.983 77.2638 223.727 76.3639 224.08 75.2913C224.389 74.4589 224.366 73.5393 224.016 72.7235C223.81 72.3388 223.525 72.002 223.181 71.7352C222.836 71.4685 222.439 71.2779 222.016 71.1758C221.187 70.8773 220.278 70.8939 219.461 71.2227C219.091 71.3879 218.763 71.6344 218.5 71.9439C218.238 72.2534 218.049 72.618 217.946 73.0108L215.327 72.1959C215.528 71.4905 215.882 70.8381 216.363 70.2849C216.844 69.7318 217.44 69.2914 218.11 68.995C219.58 68.3851 221.224 68.3433 222.723 68.8778C224.505 69.4327 225.746 70.3434 226.448 71.6097C226.797 72.2851 227.001 73.0259 227.048 73.7849C227.096 74.5439 226.985 75.3045 226.723 76.0182C226.212 77.6714 224.945 79.0628 222.922 80.1923L220.911 81.2416C219.88 81.943 219.148 83.0052 218.858 84.2198L216.239 83.4107ZM214.736 87.8838C214.846 87.4822 215.106 87.1382 215.461 86.9223C215.867 86.7384 216.326 86.7096 216.751 86.8414C217.177 86.9731 217.539 87.2563 217.771 87.6376C217.94 88.0061 217.963 88.4252 217.835 88.8101C217.728 89.2085 217.467 89.5479 217.11 89.7539C216.911 89.8548 216.693 89.9127 216.471 89.9238C216.248 89.935 216.026 89.899 215.818 89.8184C215.603 89.769 215.4 89.6738 215.225 89.5393C215.049 89.4048 214.905 89.2341 214.8 89.0387C214.634 88.6758 214.611 88.263 214.736 87.8838V87.8838Z" fill="#13426E"/>
<path d="M78.1879 104.85L67.3123 106.157C64.8121 108.563 61.7851 110.35 58.4734 111.374C55.1617 112.397 51.657 112.631 48.2394 112.054C44.8218 111.478 41.5861 110.107 38.7908 108.053C35.9956 105.999 33.7184 103.318 32.1411 100.224C30.5639 97.1301 29.7304 93.7091 29.7072 90.2345C29.684 86.7599 30.4718 83.328 32.0076 80.2132C33.5434 77.0983 35.7847 74.3868 38.5523 72.2954C41.3198 70.204 44.537 68.7907 47.9465 68.1684C51.6153 67.4936 55.3945 67.7556 58.9357 68.9303C62.4769 70.1051 65.6662 72.1548 68.2095 74.8904C70.7527 77.6261 72.5682 80.9597 73.4884 84.5838C74.4087 88.208 74.4041 92.0061 73.4752 95.6281L78.1879 104.85Z" fill="#F6CD93"/>
<path d="M50.5661 110.835C45.8244 110.819 41.2056 109.321 37.3526 106.55C33.4995 103.78 30.6038 99.8734 29.0683 95.3754C27.5329 90.8775 27.4341 86.0115 28.7857 81.4546C30.1373 76.8977 32.8721 72.8766 36.6096 69.9508C40.347 67.025 44.9011 65.3401 49.6382 65.1306C54.3753 64.921 59.0598 66.1972 63.0397 68.7815C67.0196 71.3659 70.0971 75.1299 71.8438 79.5497C73.5904 83.9695 73.9195 88.8253 72.7852 93.4414L77.7669 103.214L66.2481 104.603C63.0552 107.637 59.0509 109.674 54.7234 110.466C53.3514 110.713 51.9601 110.837 50.5661 110.835V110.835ZM50.6245 66.2807C47.4523 66.2793 44.3186 66.9774 41.4454 68.3254C38.5722 69.6735 36.0299 71.6385 33.9985 74.0813C31.9671 76.5242 30.4963 79.385 29.6904 82.4612C28.8846 85.5373 28.7632 88.7536 29.3351 91.882C30.0426 95.7329 31.7766 99.3201 34.3532 102.263C36.9298 105.206 40.2528 107.394 43.9698 108.596C47.6867 109.798 51.6589 109.969 55.4649 109.091C59.2709 108.212 62.7688 106.317 65.5874 103.607L65.7277 103.466L75.966 102.235L71.5164 93.5645L71.5748 93.3476C72.3596 90.3053 72.4693 87.1275 71.8964 84.038C70.9743 79.0543 68.3431 74.5506 64.4584 71.3067C60.5738 68.0628 55.6801 66.2828 50.6245 66.2748V66.2807Z" fill="white"/>
<path d="M38.673 82.59C38.5094 82.5938 38.3482 82.6299 38.1985 82.6962C38.0489 82.7625 37.9137 82.8577 37.8008 82.9764C37.6878 83.095 37.5993 83.2349 37.5403 83.3879C37.4813 83.5409 37.4529 83.704 37.4568 83.868V94.01C37.4529 94.1737 37.4813 94.3366 37.5404 94.4892C37.5995 94.6419 37.6881 94.7813 37.8011 94.8996C37.9141 95.0178 38.0494 95.1124 38.199 95.1781C38.3486 95.2438 38.5097 95.2791 38.673 95.2822H62.2428C62.4056 95.2784 62.5661 95.2424 62.715 95.1764C62.8639 95.1104 62.9985 95.0157 63.1109 94.8975C63.2233 94.7794 63.3113 94.6402 63.3701 94.4879C63.4288 94.3356 63.457 94.1732 63.4532 94.01V83.868C63.461 83.5378 63.3381 83.2179 63.1112 82.9784C62.8844 82.7389 62.5721 82.5992 62.2428 82.59H38.673Z" fill="#FDFFFE"/>
<path d="M62.2428 96.2788H38.673C38.0872 96.2634 37.5314 96.0161 37.1271 95.5909C36.7228 95.1658 36.5028 94.5973 36.5154 94.01V83.868C36.5084 83.577 36.5587 83.2874 36.6633 83.0159C36.768 82.7443 36.925 82.4961 37.1253 82.2854C37.3257 82.0747 37.5655 81.9057 37.8311 81.788C38.0966 81.6702 38.3827 81.6061 38.673 81.5992H62.2428C62.828 81.6146 63.3832 81.8621 63.7866 82.2875C64.1901 82.7128 64.4087 83.2812 64.3945 83.868V94.01C64.4087 94.5968 64.1901 95.1652 63.7866 95.5906C63.3832 96.0159 62.828 96.2634 62.2428 96.2788V96.2788ZM38.673 82.59C38.5094 82.5938 38.3482 82.6299 38.1985 82.6962C38.0489 82.7625 37.9137 82.8577 37.8008 82.9764C37.6878 83.095 37.5993 83.2349 37.5403 83.3879C37.4813 83.5409 37.4529 83.704 37.4568 83.868V94.01C37.4529 94.1737 37.4813 94.3366 37.5404 94.4892C37.5995 94.6419 37.6881 94.7813 37.8011 94.8996C37.9141 95.0178 38.0493 95.1124 38.199 95.1781C38.3486 95.2438 38.5097 95.2791 38.673 95.2822H62.2428C62.4056 95.2784 62.566 95.2424 62.715 95.1764C62.8639 95.1104 62.9985 95.0157 63.1109 94.8975C63.2233 94.7794 63.3113 94.6402 63.3701 94.4879C63.4288 94.3356 63.457 94.1732 63.4531 94.01V83.868C63.461 83.5378 63.3381 83.2179 63.1112 82.9784C62.8844 82.7389 62.5721 82.5992 62.2428 82.59H38.673Z" fill="#13426E"/>
<path d="M66.9673 85.4626V92.4096C66.9767 92.8004 66.8312 93.1791 66.5627 93.4626C66.2942 93.7461 65.9245 93.9113 65.5347 93.9221H63.9209V83.9559H65.5347C65.9235 83.9667 66.2923 84.1311 66.5606 84.4133C66.829 84.6956 66.9752 85.0727 66.9673 85.4626V85.4626Z" fill="#13426E"/>
<path d="M42.3625 83.6804V94.1976H40.0646C39.6701 94.2288 39.2792 94.1039 38.9754 93.8497C38.6716 93.5955 38.4791 93.2322 38.4391 92.8375V85.0405C38.4791 84.6458 38.6716 84.2825 38.9754 84.0284C39.2792 83.7742 39.6701 83.6493 40.0646 83.6804H42.3625Z" fill="#F5806F"/>
<path d="M84.8127 43.382C82.7253 42.9306 81.0413 41.7581 80.4099 40.3277C80.2007 39.8406 80.1102 39.3107 80.1458 38.7816C80.1814 38.2526 80.3421 37.7396 80.6145 37.2851C81.0246 36.6146 81.5846 36.0489 82.2503 35.6327C82.9161 35.2166 83.6692 34.9614 84.4502 34.8874C86.3251 34.6935 88.208 35.1711 89.7653 36.2357C91.1569 37.1854 91.6539 37.672 92.2795 39.0556L91.3732 39.4659C90.8587 38.3286 90.5371 37.9651 89.2039 37.0565C87.8395 36.1411 86.2014 35.7268 84.5672 35.884C83.9421 35.9459 83.3393 36.1497 82.8044 36.4798C82.2696 36.8099 81.8166 37.2577 81.4799 37.7893C81.2847 38.1083 81.1685 38.4696 81.141 38.8429C81.1136 39.2161 81.1756 39.5906 81.322 39.9349C81.819 41.0664 83.2691 42.0395 85.0232 42.4206L84.8127 43.382Z" fill="#13426E"/>
<path d="M84.8303 51.4018C82.9417 51.409 81.0635 51.1202 79.2638 50.5459C73.5161 48.6699 69.54 43.8393 69.809 39.0673C70.0955 34.049 74.8902 29.6874 81.2168 28.6615C87.6486 27.6297 94.8464 30.344 97.5888 34.8287C98.2043 35.8215 98.5878 36.9411 98.7103 38.1036C98.8328 39.2661 98.6913 40.4414 98.2963 41.5412C98.1656 41.9263 98.0053 42.3007 97.8168 42.6609C97.7175 44.3871 97.0254 46.0256 95.858 47.2981C93.4782 49.9186 89.204 51.4018 84.8303 51.4018ZM83.9474 29.447C83.0859 29.4455 82.2257 29.5121 81.3746 29.6463C75.6035 30.5667 71.0544 34.6411 70.803 39.12C70.5574 43.4524 74.247 47.8609 79.5737 49.6021C85.1344 51.4136 91.9638 50.1121 95.1154 46.624C95.6156 46.0769 96.0226 45.451 96.3199 44.7714C95.1318 46.0135 93.6728 46.9626 92.0574 47.5444C87.0113 49.4027 80.2403 48.1306 76.9601 44.7011C76.1804 43.9187 75.6013 42.9586 75.2724 41.903C74.9435 40.8473 74.8746 39.7275 75.0714 38.6393C75.3196 37.473 75.8453 36.3841 76.6038 35.4654C77.3623 34.5467 78.3311 33.8254 79.4275 33.3631C82.2166 32.0675 85.4852 32.0265 87.7071 32.2434C89.3268 32.3841 92.2971 33.6914 93.9401 34.9929C95.7141 36.3392 96.9914 38.2386 97.5712 40.3922C97.9481 38.6711 97.6396 36.8704 96.7117 35.3739C94.5892 31.8272 89.204 29.447 83.9474 29.447V29.447ZM85.8068 33.1345C83.7604 33.083 81.7262 33.4645 79.8368 34.2542C78.8857 34.6557 78.0449 35.2808 77.3855 36.0767C76.726 36.8726 76.2672 37.8159 76.0479 38.8269C75.8824 39.7586 75.9444 40.7166 76.2285 41.6191C76.5126 42.5215 77.0103 43.3416 77.6793 44.0093C80.6613 47.1223 87.0873 48.3123 91.7124 46.6122C93.87 45.8705 95.6873 44.3713 96.8286 42.3913C96.8431 42.159 96.8431 41.926 96.8286 41.6936C96.6827 40.5192 96.2987 39.3871 95.7005 38.3669C95.1022 37.3466 94.3022 36.4598 93.3496 35.7609V35.7609C91.8527 34.5884 89.0812 33.3455 87.6486 33.2224C87.023 33.1579 86.409 33.1345 85.8068 33.1345V33.1345Z" fill="#13426E"/>
<path d="M64.108 43.9683C62.754 42.841 61.7279 41.3687 61.1377 39.7063C60.6582 38.4174 60.5273 37.0242 60.7583 35.6682C60.9894 34.3122 61.5742 33.0416 62.4533 31.9855C63.6637 30.514 66.0727 29.0953 68.8851 28.1866L69.1892 29.1363C66.5346 29.9922 64.301 31.2937 63.2076 32.6186C62.4348 33.5414 61.9195 34.653 61.7141 35.8402C61.5087 37.0275 61.6205 38.2481 62.0382 39.378C62.5732 40.8712 63.498 42.1932 64.7161 43.2061L64.108 43.9683Z" fill="#13426E"/>
<path d="M72.0894 48.2772C67.4117 48.2772 64.1782 46.6181 62.4533 44.578C61.3423 43.2706 60.9038 41.5998 61.1084 39.4659C61.2936 38.0278 61.8261 36.6566 62.6596 35.4716C63.4931 34.2865 64.6025 33.3233 65.8914 32.6655L66.365 33.539C65.2183 34.1189 64.2304 34.9712 63.4874 36.0217C62.7445 37.0721 62.269 38.2887 62.1025 39.5656C61.9212 41.4122 62.2837 42.8427 63.2076 43.9331C65.599 46.7529 71.2357 48.752 79.8953 45.9029L80.2052 46.8526C77.5924 47.756 74.8529 48.2369 72.0894 48.2772V48.2772Z" fill="#13426E"/>
<path d="M78.1295 52.8733C76.6053 52.8787 75.0899 52.6433 73.6389 52.1757C67.6046 50.2059 63.2485 45.2873 63.5058 40.7381C63.7864 35.7198 68.5869 31.3582 74.9135 30.3322C81.3454 29.3005 88.5374 32.0148 91.2855 36.5054C91.8986 37.4981 92.2806 38.6166 92.4031 39.7777C92.5256 40.9388 92.3854 42.1127 91.993 43.212C91.4651 44.6198 90.6306 45.8919 89.5503 46.9354C88.47 47.979 87.1711 48.7678 85.7483 49.2445C80.7081 51.1029 73.9371 49.8307 70.6568 46.4012C69.8765 45.6191 69.2967 44.6593 68.9668 43.6037C68.6369 42.5481 68.5667 41.4281 68.7624 40.3394C69.0105 39.1731 69.5363 38.0842 70.2948 37.1655C71.0532 36.2468 72.022 35.5256 73.1185 35.0632C75.7822 33.8659 78.793 33.6968 81.5734 34.5884C84.421 35.5615 86.4499 37.8068 86.5084 40.0522C86.5194 40.4787 86.4622 40.9042 86.3389 41.3126C86.3681 41.3771 86.4032 41.4474 86.4324 41.5178C87.251 43.341 87.3387 44.9473 86.6955 46.2957C86.31 47.0475 85.7253 47.6783 85.0057 48.1189L84.4795 47.2747C85.041 46.9362 85.4967 46.4467 85.7951 45.8618C86.0187 45.3303 86.131 44.7584 86.125 44.1815C86.1189 43.6047 85.9947 43.0352 85.76 42.5085C85.2581 43.2169 84.6178 43.8155 83.878 44.268C83.1382 44.7205 82.3143 45.0175 81.4565 45.1408C78.4394 45.6332 75.0773 44.191 74.1066 41.9926C73.8961 41.5059 73.8048 40.9757 73.8404 40.4464C73.876 39.9171 74.0375 39.404 74.3113 38.95C74.7198 38.2793 75.2786 37.7134 75.9435 37.2971C76.6083 36.8809 77.3608 36.6259 78.1412 36.5523C79.5563 36.4071 80.9845 36.6429 82.2785 37.2354C83.5725 37.828 84.6855 38.7558 85.5027 39.9232C85.3448 38.1645 83.6316 36.4057 81.2518 35.5674C78.7178 34.7548 75.9758 34.8901 73.5336 35.9485C72.5814 36.3492 71.7394 36.974 71.0789 37.7699C70.4184 38.5658 69.9588 39.5095 69.7388 40.5212C69.5734 41.4529 69.6353 42.4109 69.9194 43.3133C70.2035 44.2158 70.7013 45.0359 71.3702 45.7036C74.3522 48.8165 80.7782 50.0066 85.4033 48.3065C86.6822 47.8796 87.8509 47.1741 88.8255 46.2405C89.8001 45.307 90.5563 44.1686 91.0399 42.9072C91.385 41.9468 91.509 40.9206 91.4026 39.9054C91.2963 38.8903 90.9625 37.9123 90.426 37.0447C87.9234 32.941 81.0296 30.3791 75.0597 31.3406C69.2944 32.2434 64.7512 36.3471 64.4998 40.8026C64.2659 44.9063 68.3238 49.4028 73.9429 51.2377C79.562 53.0726 86.3973 50.6866 89.3852 47.3802L90.122 48.072C87.7071 50.7335 82.9417 52.8733 78.1295 52.8733ZM78.9364 37.4844C78.7058 37.4862 78.4755 37.4999 78.2464 37.5255C77.6211 37.5866 77.018 37.79 76.483 38.1201C75.948 38.4503 75.4952 38.8986 75.1591 39.4307C74.963 39.7493 74.8458 40.1103 74.8173 40.4836C74.7888 40.8569 74.8499 41.2316 74.9954 41.5764C75.7848 43.3351 78.72 44.5662 81.2752 44.1441C82.1082 44.0403 82.9036 43.7353 83.593 43.2554C84.2825 42.7755 84.8456 42.1349 85.2337 41.3888C84.6835 40.318 83.8806 39.3983 82.8949 38.7097C81.7232 37.9221 80.347 37.4961 78.9364 37.4844V37.4844Z" fill="#13426E"/>
<path d="M82.4856 46.835C79.9099 46.8554 77.3464 46.4797 74.8843 45.7211C69.1366 43.8393 65.1605 39.0145 65.4295 34.2366C65.6985 29.4587 70.4171 25.6716 77.1822 24.5871C83.9474 23.5025 90.5897 25.7244 93.2034 30.0039C94.178 31.5778 94.5576 33.4497 94.2734 35.2801C94.5751 36.0101 94.7966 36.7709 94.9341 37.5489C95.1562 38.5806 95.1372 39.6499 94.8785 40.673C94.6198 41.6962 94.1286 42.6454 93.4431 43.4465C91.3615 45.7563 86.9587 46.835 82.4856 46.835ZM80.5443 25.3199C79.4733 25.3198 78.4039 25.4041 77.346 25.5719C71.0544 26.5803 66.6632 30.086 66.4293 34.2953C66.1838 38.6276 69.8733 43.0303 75.2001 44.7714C80.9244 46.6415 89.6308 46.1843 92.7122 42.7782C93.2948 42.0883 93.7104 41.2726 93.9265 40.3949C94.1425 39.5173 94.1532 38.6014 93.9577 37.7189C93.9167 37.4844 93.87 37.2441 93.8056 37.0096C93.2488 38.3391 92.4175 39.5353 91.3663 40.5194C90.3152 41.5036 89.0681 42.2534 87.7071 42.7196C82.6669 44.5721 75.8959 43.3058 72.6156 39.8763C71.8342 39.0939 71.2541 38.1329 70.9251 37.076C70.5961 36.019 70.5281 34.8978 70.727 33.8087C70.9746 32.6429 71.4994 31.5544 72.2569 30.6358C73.0143 29.7171 73.9819 28.9956 75.0773 28.5325C77.7483 27.3558 80.7578 27.2055 83.5322 28.1104C86.3798 29.0835 88.4087 31.3289 88.4672 33.5742H87.4732C87.4264 31.7392 85.6723 29.8691 83.2106 29.0308C80.6762 28.2173 77.9333 28.3548 75.4924 29.4177C74.532 29.8127 73.6822 30.4367 73.0168 31.2356C72.3514 32.0345 71.8906 32.9842 71.6742 34.0021C71.507 34.9343 71.5676 35.8931 71.8507 36.7967C72.1337 37.7002 72.631 38.5215 73.2997 39.1904C76.2818 42.3033 82.7136 43.4876 87.3329 41.7874C88.6119 41.3592 89.7807 40.6525 90.7552 39.718C91.7297 38.7835 92.4859 37.6444 92.9695 36.3823C93.0789 36.0662 93.1668 35.743 93.2326 35.415C92.1624 33.1071 90.384 31.2028 88.1573 29.9805L88.6309 29.107C90.5453 30.1476 92.1649 31.6584 93.3379 33.498C93.2552 32.4463 92.9289 31.4286 92.3848 30.5257C90.3909 27.3014 85.7074 25.3199 80.5443 25.3199Z" fill="#13426E"/>
<path d="M102.325 64.7799C98.3138 64.7799 92.9286 61.7139 90.4026 58.853C90.2488 58.8618 90.0946 58.8618 89.9407 58.853C88.422 58.7478 86.9652 58.2087 85.7425 57.2994C85.1218 56.8435 84.5246 56.3563 83.9532 55.8397C83.5556 55.4821 83.1405 55.1186 82.7078 54.7845C81.1337 53.5317 79.3271 52.6051 77.3927 52.0584C66.9848 49.1976 68.5636 41.5471 68.5811 41.4709L69.5517 41.6878C69.4933 41.9633 68.1893 48.4941 77.6559 51.0677C79.7186 51.6565 81.6431 52.6531 83.3159 53.9989C83.772 54.3506 84.1988 54.7258 84.6081 55.0893C85.1515 55.5852 85.7214 56.051 86.3155 56.4846C87.2901 57.2022 88.4273 57.6656 89.625 57.8329C89.3434 57.4093 89.1449 56.9358 89.0402 56.4377C88.9419 55.9714 89.0261 55.485 89.2753 55.0791C89.5245 54.6732 89.9197 54.3789 90.3792 54.2568C90.8178 54.1184 91.2852 54.0997 91.7333 54.2028C92.1815 54.3058 92.5941 54.5269 92.9286 54.8431C93.2199 55.063 93.4465 55.3579 93.5845 55.6963C93.7224 56.0348 93.7665 56.4044 93.7121 56.766C93.5016 57.7215 92.607 58.3547 91.5662 58.6595C93.9577 61.0924 98.6237 63.7774 102.337 63.7774V64.7741L102.325 64.7799ZM91.1043 55.1069C90.9668 55.1074 90.8304 55.1312 90.7008 55.1772C89.9582 55.4586 89.9232 55.8749 89.9933 56.2501C90.1377 56.8193 90.4119 57.3471 90.7944 57.7919C91.7767 57.6336 92.5895 57.1353 92.7239 56.5373C92.7305 56.3511 92.6907 56.1662 92.608 55.9993C92.5253 55.8325 92.4023 55.6889 92.2503 55.5818C91.934 55.2962 91.5293 55.1286 91.1043 55.1069V55.1069Z" fill="#13426E"/>
<path d="M130.73 103.718C126.134 103.718 121.878 99.8549 121.685 99.679L122.077 99.2452C122.129 99.2921 126.941 103.66 131.619 103.079C133.701 102.821 135.467 101.619 136.882 99.4973L137.373 99.8256C135.87 102.094 133.964 103.384 131.701 103.66C131.379 103.701 131.055 103.72 130.73 103.718V103.718Z" fill="#302824"/>
<path d="M110.844 109.88C110.084 103.982 105.874 102.98 105.693 102.939L105.822 102.352C105.868 102.352 110.61 103.466 111.423 109.786L110.844 109.88Z" fill="#302824"/>
<path d="M81.591 144.216C80.7929 139.939 80.9367 135.538 82.0123 131.323C83.088 127.107 85.0695 123.178 87.8182 119.811L88.2684 120.18C85.5765 123.476 83.635 127.321 82.5796 131.448C81.5242 135.574 81.3804 139.881 82.1582 144.069L81.591 144.216Z" fill="#302824"/>
<path d="M104.167 132.937L103.687 132.602C103.839 132.386 107.453 127.326 112.704 126.91L112.75 127.496C107.769 127.877 104.202 132.89 104.167 132.937Z" fill="#302824"/>
<path d="M123.445 163.656C119.895 163.687 116.35 163.404 112.85 162.812L112.961 162.225C113.154 162.266 132.163 165.901 148.003 157.664L148.272 158.186C139.799 162.612 130.42 163.656 123.445 163.656Z" fill="#302824"/>
<path d="M158.405 101.731C157.077 101.793 155.756 101.51 154.569 100.91L154.879 100.412C154.879 100.412 157.434 101.918 162.211 100.576L162.369 101.162C161.08 101.534 159.746 101.725 158.405 101.731Z" fill="#302824"/>
<path d="M110.967 229.878H110.926V229.292C110.99 229.292 118.194 229.391 123.018 222.257L123.497 222.585C118.697 229.72 111.552 229.878 110.967 229.878Z" fill="#302824"/>
<path d="M152.219 227.463L152.055 226.876C152.113 226.876 157.937 225.053 160.434 220.041L160.96 220.305C158.346 225.575 152.47 227.392 152.219 227.463Z" fill="#302824"/>
<path d="M130.654 158.028V157.442C130.76 157.442 141.179 156.762 147.172 149.955L147.611 150.342C141.401 157.342 130.765 158.022 130.654 158.028Z" fill="#302824"/>
<path d="M219.461 146.344L218.876 145.324C228.565 139.838 236.628 131.874 242.244 122.243C247.86 112.612 250.827 101.66 250.842 90.5043C250.841 87.4992 250.628 84.498 250.205 81.523L251.374 81.3589C253.206 94.151 251.141 107.199 245.45 118.795C239.76 130.391 230.71 139.993 219.484 146.344H219.461Z" fill="#F7EFDF"/>
<path d="M188.091 154.581C183.17 154.583 178.265 154.019 173.473 152.898L173.736 151.755C183.914 154.131 194.521 153.943 204.609 151.21L204.913 152.341C199.43 153.834 193.772 154.587 188.091 154.581Z" fill="#F7EFDF"/>
<path d="M114.522 9.91924C106.666 5.81074 98.1592 3.09738 89.3794 1.89943C85.8564 1.41669 82.3049 1.17382 78.7493 1.17249V-2.981e-07C82.3617 -0.00133989 85.9701 0.24546 89.5489 0.738667C98.4587 1.95629 107.092 4.70918 115.066 8.87573L114.522 9.91924Z" fill="#F7EFDF"/>
<path d="M1.16943 78.9553H8.76525e-07C-0.00233407 63.2593 4.66038 47.9186 13.393 34.8914C22.1256 21.8643 34.5319 11.7416 49.0283 5.81554L49.4726 6.90009C35.1686 12.706 22.9247 22.6707 14.3164 35.5119C5.70812 48.3531 1.1294 63.4832 1.16943 78.9553V78.9553Z" fill="#F7EFDF"/>
<path d="M9.50745 116.592C5.4241 109.046 2.60713 100.878 1.16943 92.4154L2.33885 92.2161C3.74933 100.55 6.51477 108.594 10.5248 116.029L9.50745 116.592Z" fill="#F7EFDF"/>
<g opacity="0.67">
<path d="M28.23 61.5966C29.5508 61.5966 30.6215 60.5231 30.6215 59.1989C30.6215 57.8746 29.5508 56.8011 28.23 56.8011C26.9092 56.8011 25.8385 57.8746 25.8385 59.1989C25.8385 60.5231 26.9092 61.5966 28.23 61.5966Z" fill="#3A749A"/>
</g>
<g opacity="0.53">
<path d="M40.7663 25.5133C40.2352 25.5133 39.7161 25.3554 39.2746 25.0594C38.8331 24.7635 38.4891 24.3429 38.2862 23.8509C38.0832 23.3588 38.0304 22.8175 38.1344 22.2953C38.2385 21.7732 38.4947 21.2938 38.8706 20.9177C39.2465 20.5416 39.7253 20.2858 40.2463 20.1826C40.7673 20.0794 41.3071 20.1336 41.7974 20.3381C42.2877 20.5427 42.7064 20.8885 43.0006 21.3318C43.2948 21.7751 43.4513 22.2959 43.4501 22.8283C43.4485 23.541 43.1651 24.2239 42.662 24.7273C42.1588 25.2306 41.477 25.5133 40.7663 25.5133V25.5133ZM40.7663 20.7237C40.3511 20.7237 39.9452 20.8471 39.6 21.0784C39.2548 21.3097 38.9858 21.6384 38.8269 22.0229C38.668 22.4075 38.6265 22.8307 38.7075 23.2389C38.7885 23.6472 38.9884 24.0222 39.282 24.3165C39.5755 24.6108 39.9495 24.8113 40.3567 24.8925C40.7639 24.9737 41.186 24.932 41.5696 24.7727C41.9531 24.6134 42.281 24.3437 42.5116 23.9976C42.7423 23.6515 42.8654 23.2446 42.8654 22.8283C42.8654 22.2701 42.6442 21.7348 42.2506 21.3401C41.8569 20.9454 41.323 20.7237 40.7663 20.7237V20.7237Z" fill="#F6CD93"/>
</g>
<g opacity="0.53">
<path d="M196.177 36.8982C197.498 36.8982 198.569 35.8247 198.569 34.5004C198.569 33.1762 197.498 32.1027 196.177 32.1027C194.857 32.1027 193.786 33.1762 193.786 34.5004C193.786 35.8247 194.857 36.8982 196.177 36.8982Z" fill="#F6CD93"/>
</g>
<g opacity="0.67">
<path d="M209.316 144.667C210.637 144.667 211.707 143.594 211.707 142.27C211.707 140.945 210.637 139.872 209.316 139.872C207.995 139.872 206.924 140.945 206.924 142.27C206.924 143.594 207.995 144.667 209.316 144.667Z" fill="#3A749A"/>
</g>
<g opacity="0.53">
<path d="M190.506 128.645C189.975 128.646 189.455 128.49 189.013 128.195C188.571 127.9 188.226 127.48 188.022 126.988C187.818 126.497 187.764 125.955 187.867 125.433C187.97 124.911 188.225 124.431 188.6 124.054C188.975 123.677 189.453 123.42 189.974 123.316C190.495 123.211 191.035 123.264 191.525 123.468C192.016 123.671 192.436 124.016 192.731 124.459C193.026 124.901 193.184 125.422 193.184 125.954C193.182 126.667 192.9 127.349 192.398 127.853C191.896 128.358 191.216 128.642 190.506 128.645ZM190.506 123.856C190.09 123.855 189.683 123.977 189.337 124.208C188.991 124.439 188.721 124.767 188.562 125.152C188.402 125.537 188.36 125.961 188.441 126.369C188.522 126.778 188.722 127.154 189.016 127.448C189.309 127.743 189.684 127.944 190.092 128.025C190.499 128.106 190.922 128.064 191.306 127.904C191.69 127.744 192.017 127.473 192.248 127.126C192.478 126.779 192.6 126.371 192.599 125.954C192.599 125.679 192.545 125.406 192.44 125.151C192.334 124.897 192.18 124.665 191.986 124.47C191.791 124.276 191.561 124.121 191.307 124.015C191.053 123.91 190.781 123.856 190.506 123.856V123.856Z" fill="#F6CD93"/>
</g>
</g>
</g>
<defs>
<clipPath id="clip0_10_2">
<rect width="252" height="303" fill="white"/>
</clipPath>
</defs>
</svg>
